<?xml version="1.0" encoding="iso-8859-1"?>
<!-- Generator: Adobe Illustrator 24.0.1, SVG Export Plug-In . SVG Version: 6.00 Build 0)  -->
<svg version="1.1" id="vert_sig_w_tag" xmlns="http://www.w3.org/2000/svg" xmlns:xlink="http://www.w3.org/1999/xlink" x="0px"
	 y="0px" viewBox="0 0 556.782 191.046" style="enable-background:new 0 0 556.782 191.046;" xml:space="preserve">
<g>
	<path style="fill:#FFFFFF;" d="M255.13,73.55c-3.996,0-4.535,0-4.535-16.309V41.798c0-6.479-2.808-13.391-13.068-13.391
		c-7.02,0-12.744,3.994-18.359,8.64v-8.64c-1.62,0-4.104,0.43-7.452,0.864c-2.592,0.323-6.048,0.864-7.559,0.864v2.59h5.724
		c1.835,0,3.024,0,3.024,9.611V72.47c0,1.08-1.079,1.08-2.051,1.08h-8.165c-2.377,0-3.779-3.565-5.292-7.13
		c-3.997-9.502-19.223-52.916-19.223-57.237c0-2.271,1.836-2.05,1.836-3.35c0-0.43-0.218-0.753-0.648-0.753
		c-0.756,0-3.241,0.433-5.616,1.188l-27.324,64.797c-0.865,2.161-1.188,2.485-6.265,2.485v2.593h21.925V73.55h-7.021
		c-2.593,0-2.7-2.159-2.7-3.025c0-2.913,2.7-11.231,6.48-20.628h25.38c3.347,9.18,7.667,21.388,7.667,22.248
		c0,0.865-0.215,1.405-2.052,1.405h-5.399v2.593h43.587V73.55h-4.321c-3.996,0-4.536,0-4.536-16.309v-16.85
		c4.753-3.994,9.72-7.125,16.2-7.125c4.968,0,8.964,2.483,8.964,11.016V72.47c0,1.08-1.08,1.08-2.053,1.08h-3.995v2.593h21.167
		V73.55H255.13z M160.245,46.335c3.78-9.722,7.02-17.498,12.636-30.457l9.936,30.457H160.245z"/>
	<path style="fill:#FFFFFF;" d="M296.359,14.689c0-9.609-1.189-9.609-3.025-9.609h-5.724V2.488C292.686,2.162,297.655,1.3,302.622,0
		v57.241c0,16.309,0.54,16.309,4.537,16.309h4.318v2.593c-1.08,0-4.318,0.432-7.56,0.859c-3.238,0.434-6.371,0.868-7.558,0.868
		v-8.099c-6.912,5.071-11.449,8.099-17.712,8.099c-12.744,0-18.36-12.311-18.36-23.546c0-13.821,8.424-25.917,23.22-25.917
		c4.319,0,8.748,1.079,12.853,3.78V14.689z M296.359,35.534c-3.349-2.593-7.561-4.211-11.772-4.211
		c-12.096,0-17.711,9.828-17.711,21.273c0,10.156,4.534,20.087,15.982,20.087c5.617,0,9.397-2.592,13.501-6.264V35.534z"/>
	<path style="fill:#FFFFFF;" d="M321.473,42.337c0-9.611-1.189-9.611-3.025-9.611h-5.724v-2.59c1.513,0,4.969-0.541,7.56-0.864
		c3.35-0.435,5.833-0.864,7.453-0.864v9.285c8.1-7.342,11.016-9.285,14.363-9.285c1.836,0,3.888,0.864,5.076,2.374
		c-1.188,6.911-1.512,7.237-2.268,7.237c-1.618,0-0.539-3.241-6.265-3.241c-3.455,0-6.262,1.515-10.906,6.374v16.09
		c0,16.309,0.54,16.309,4.536,16.309h4.319v2.593h-21.167V73.55h3.995c0.973,0,2.053,0,2.053-1.08V42.337z"/>
	<path style="fill:#FFFFFF;" d="M355.108,52.169c0.54,11.23,5.075,20.948,17.928,20.948c5.508,0,9.936-1.833,13.822-5.506
		l1.513,1.619c-5.292,5.612-11.987,8.64-19.763,8.64c-13.393,0-19.765-11.231-19.765-23.328c0-12.205,6.588-26.135,20.413-26.135
		c11.929,0,18.959,10.756,18.959,23.69L355.108,52.169z M382.59,49.288c0-4.078-1.42-17.965-14.342-17.965
		c-7.668,0-13.141,10.042-13.141,18.034L382.59,49.288z"/>
	<path style="fill:#FFFFFF;" d="M464.068,32.725h-3.238c-1.189,0-1.404,0.108-2.809,2.916c-0.863,1.838-8.966,21.168-16.847,41.04
		c-0.433,0.973-0.649,1.509-1.189,1.509c-0.648,0-0.865-0.429-1.512-1.94l-11.555-30.78l-12.854,30.78
		c-0.646,1.512-0.756,1.94-1.512,1.94c-0.754,0-0.971-0.643-1.512-2.048l-14.256-36.83c-2.268-4.858-3.131-6.587-5.184-6.587h-2.914
		v-2.59h19.654v2.59h-5.293c-0.973,0-1.727,0-1.727,0.649c0,1.295,1.943,5.507,12.959,33.372
		c5.076-9.828,7.451-16.201,11.232-24.841c-3.456-9.18-3.671-9.18-6.048-9.18h-2.809v-2.59h19.441v2.59h-5.617
		c-0.973,0-1.727,0-1.727,0.649c0,1.295,7.883,20.414,13.067,33.372c11.987-28.188,12.203-29.591,12.203-32.292
		c0-1.513-0.756-1.729-2.269-1.729h-4.751v-2.59h17.063V32.725z"/>
	<path style="fill:#FFFFFF;" d="M471.405,40.392c0,11.559,27.646,5.294,27.646,22.361c0,10.797-11.338,15.117-20.517,15.117
		c-4.105,0-8.208-0.647-12.097-2.055c-0.648-4.104-1.403-8.204-1.403-9.288c0-0.647,0.432-0.969,1.188-0.969
		c0.864,0,1.08,1.08,1.296,1.835c0.757,3.997,8.424,6.912,13.932,6.912c5.509,0,12.31-3.241,12.31-9.935
		c0-12.528-27.106-5.076-27.106-21.925c0-7.346,7.344-14.038,16.955-14.038c4.428,0,8.642,0.646,12.097,2.266
		c0.323,2.918,0.647,6.589,0.647,7.346c0,0.433-0.216,0.754-0.756,0.754c-0.754,0-0.863-0.431-1.188-0.971
		c-0.541-0.862-2.809-5.832-12.204-5.832C477.668,31.97,471.405,34.777,471.405,40.392z"/>
</g>
<g>
	<path style="fill:#FFFFFF;" d="M189.512,95.68h19.763v2.916h-4.429c-1.186,0-2.16,0.218-2.16,1.081v39.312
		c0,20.628-14.686,27.322-28.08,27.322c-9.827,0-25.053-4.212-25.053-23.652v-29.59c0-12.309-0.326-14.474-3.024-14.474h-6.372
		V95.68h23.218v2.916h-4.322c-1.295,0-2.482,0-2.482,1.081v41.364c0,18.686,13.177,21.166,19.871,21.166
		c7.129,0,22.679-2.159,22.679-23.869v-23.974c0-15.443-1.188-15.769-3.564-15.769h-6.045V95.68z"/>
	<path style="fill:#FFFFFF;" d="M225.787,145.361c0,16.306,0.54,16.306,4.538,16.306h4.319v2.592h-21.169v-2.592h3.996
		c0.972,0,2.052,0,2.052-1.076v-30.135c0-9.61-1.188-9.61-3.024-9.61h-5.723v-2.592c1.512,0,4.966-0.543,7.559-0.865
		c3.347-0.434,5.833-0.865,7.452-0.865v8.641c5.617-4.643,11.338-8.641,18.362-8.641c10.259,0,13.063,6.912,13.063,13.394v15.443
		c0,16.306,0.541,16.306,4.538,16.306h4.322v2.592h-21.17v-2.592h3.999c0.968,0,2.049,0,2.049-1.076V132.4
		c0-8.532-3.996-11.015-8.964-11.015c-6.481,0-11.447,3.132-16.2,7.128V145.361z"/>
	<path style="fill:#FFFFFF;" d="M281.756,145.361c0,16.306,0.54,16.306,4.536,16.306h4.32v2.592h-21.169v-2.592h3.999
		c0.969,0,2.049,0,2.049-1.076v-30.135c0-9.61-1.188-9.61-3.023-9.61h-5.724v-2.592c1.51,0,4.968-0.543,7.559-0.865
		c3.349-0.434,5.833-0.865,7.452-0.865V145.361z M277.977,96.762c2.16,0,3.995,1.834,3.995,3.999c0,2.266-1.835,4.098-3.995,4.098
		c-2.161,0-3.996-1.832-3.996-4.098C273.981,98.596,275.816,96.762,277.977,96.762z"/>
	<path style="fill:#FFFFFF;" d="M289.546,118.254h19.655v2.592h-5.291c-0.973,0-1.727,0-1.727,0.647
		c0,1.294,4.427,11.231,13.931,34.233c8.1-17.062,12.203-28.727,12.203-33.153c0-1.728-1.403-1.728-2.697-1.728h-4.971v-2.592
		h18.361v2.592h-3.564c-0.971,0-1.297,0.108-2.053,1.619c-3.889,8.1-12.744,29.27-18.25,42.767c-0.324,0.646-0.648,1.08-1.189,1.08
		c-0.434,0-0.648,0-1.622-2.267c-1.077-3.78-11.123-29.052-14.686-36.612c-2.266-4.859-3.131-6.587-5.184-6.587h-2.915V118.254z"/>
	<path style="fill:#FFFFFF;" d="M390.784,130.456c0-9.61-1.189-9.61-3.023-9.61h-5.724v-2.592c1.513,0,4.971-0.543,7.559-0.865
		c3.351-0.434,5.833-0.865,7.452-0.865v9.29c8.102-7.345,11.017-9.29,14.363-9.29c1.837,0,3.89,0.865,5.078,2.379
		c-1.188,6.911-1.512,7.235-2.267,7.235c-1.621,0-0.542-3.243-6.262-3.243c-3.458,0-6.267,1.514-10.912,6.374v16.093
		c0,16.306,0.543,16.306,4.537,16.306h4.318v2.592h-21.165v-2.592h3.994c0.974,0,2.052,0,2.052-1.076V130.456z"/>
	<path style="fill:#FFFFFF;" d="M426.512,128.514c0,11.557,27.649,5.293,27.649,22.355c0,10.798-11.343,15.121-20.522,15.121
		c-4.102,0-8.208-0.65-12.095-2.055c-0.649-4.102-1.404-8.209-1.404-9.289c0-0.646,0.431-0.972,1.188-0.972
		c0.865,0,1.081,1.078,1.297,1.838c0.756,3.995,8.422,6.912,13.93,6.912c5.508,0,12.315-3.239,12.315-9.938
		c0-12.526-27.109-5.074-27.109-21.923c0-7.344,7.347-14.041,16.957-14.041c4.427,0,8.64,0.651,12.096,2.268
		c0.326,2.917,0.646,6.589,0.646,7.347c0,0.431-0.215,0.756-0.756,0.756c-0.756,0-0.862-0.434-1.186-0.971
		c-0.539-0.865-2.809-5.834-12.206-5.834C432.776,120.089,426.512,122.894,426.512,128.514z"/>
	<path style="fill:#FFFFFF;" d="M474.14,145.361c0,16.306,0.54,16.306,4.536,16.306h4.318v2.592h-21.166v-2.592h3.996
		c0.971,0,2.051,0,2.051-1.076v-30.135c0-9.61-1.188-9.61-3.023-9.61h-5.725v-2.592c1.514,0,4.968-0.543,7.561-0.865
		c3.348-0.434,5.832-0.865,7.452-0.865V145.361z M470.358,96.762c2.162,0,3.996,1.834,3.996,3.999c0,2.266-1.834,4.098-3.996,4.098
		c-2.156,0-3.992-1.832-3.992-4.098C466.366,98.596,468.202,96.762,470.358,96.762z"/>
	<path style="fill:#FFFFFF;" d="M538.745,118.254v2.592h4.861c1.51,0,2.59,0,2.59,1.728c0,1.944-0.861,8.747-12.311,33.262
		c-4.211-9.933-14.257-33.048-14.257-34.342c0-0.647,0.757-0.647,1.73-0.647h5.291l-1.162-2.592h-29.365v-10.263h-1.514
		l-8.75,10.371c-0.646,0.646-1.078,1.187-1.078,1.727c0,0.757,0.433,0.757,2.699,0.757h2.377v35.207
		c0,5.833,3.238,9.938,9.396,9.938c3.779,0,9.397-1.838,12.744-3.783l-0.973-2.159c-2.268,0.972-4.859,1.726-7.344,1.726
		c-7.02,0-7.559-5.182-7.559-10.039v-30.889h13.788c2.051,0,3.025,1.619,5.184,6.587l15.335,35.746
		c-10.26,22.467-16.522,23.547-19.979,25.273c-1.295,0.54-1.728,0.862-1.728,1.294c0,0.757,0.539,1.3,1.297,1.3
		c3.672,0,7.452-0.435,11.124-1.405c4.75-6.265,27.214-60.695,29.05-65.232c1.512-3.562,1.08-3.562,2.916-3.562h3.674v-2.592
		H538.745z"/>
	<path style="fill:#FFFFFF;" d="M344.977,140.652c0.537,11.231,5.072,20.953,17.926,20.953c5.508,0,9.935-1.839,13.824-5.51
		l1.51,1.62c-5.291,5.615-11.987,8.642-19.762,8.642c-13.393,0-19.763-11.232-19.763-23.328c0-12.204,6.585-26.137,20.409-26.137
		c11.932,0,18.963,10.108,18.963,23.695L344.977,140.652z M372.457,137.774c-0.484-4.164-1.42-17.966-14.34-17.966
		c-7.67,0-13.141,10.045-13.141,18.037L372.457,137.774z"/>
</g>
<path style="fill:#FFFFFF;" d="M58.211,1.682C58.211,1.682,0,41.524,0,108.573v55.49h47.295v-3.328h21.832v3.328h47.295v-55.752
	C116.423,41.264,58.211,1.682,58.211,1.682z M45.654,68.012c0.363,12.298,3.409,16.234,12.283,24.236
	c19.454,17.55,10.115,35.581,6.318,39.018c3.074-16.096-0.905-22.786-15.566-36.841C39.789,85.892,42.392,74.177,45.654,68.012z
	 M38.319,60.537c-5.222,18.113-3.322,30.289,7.612,40.287c19.87,18.169,15.508,36.474,5.386,43.358H39.822
	C-0.943,121.941,29.11,71.914,38.319,60.537z M73.09,155.568H43.333l-4.671-6.212h39.1L73.09,155.568z M76.83,144.183H56.477
	c17.915-7.691,25.645-30.764,13.631-47.725C61.47,84.26,41.417,73.392,57.214,36.986c-2.196,37.131,41.001,40.026,41.001,74.311
	C98.215,134.314,76.83,144.183,76.83,144.183z"/>
</svg>
