<?xml version="1.0" encoding="UTF-8"?>
<svg width="156px" height="240px" viewBox="0 0 156 240" version="1.1" xmlns="http://www.w3.org/2000/svg" xmlns:xlink="http://www.w3.org/1999/xlink">
    <title>Artboard Copy 9</title>
    <g id="Icons" stroke="none" stroke-width="1" fill="none" fill-rule="evenodd">
        <g id="Artboard-Copy-9" transform="translate(-371.000000, -242.000000)" fill="#FFFFFF">
            <path d="M461.459,339.717515 L476.859019,347.206632 C473.021279,351.697714 468.034035,355.177009 462.352867,357.18894 L461.459,339.717515 Z M451,242.130515 C469.777681,242.130515 485,257.352834 485,276.130515 L485,325.130515 C485,327.143706 484.825029,329.11603 484.489464,331.03311 L469.956303,321.559969 C469.977622,321.212298 469.991217,320.86254 469.996919,320.510862 L470,320.130515 L470,284.130515 C470,271.427966 459.702549,261.130515 447,261.130515 C434.297451,261.130515 424,271.427966 424,284.130515 L424,320.130515 C424,326.385008 426.496504,332.056412 430.547382,336.202597 L431.496886,357.135331 C418.380135,352.420252 409,339.870808 409,325.130515 L409,276.130515 C409,257.352834 424.222319,242.130515 443,242.130515 L451,242.130515 Z" id="Combined-Shape"></path>
            <path d="M461.459,464.717515 L476.859019,472.206632 C473.021279,476.697714 468.034035,480.177009 462.352867,482.18894 L461.459,464.717515 Z M451,367.130515 C469.777681,367.130515 485,382.352834 485,401.130515 L485,450.130515 C485,452.143706 484.825029,454.11603 484.489464,456.03311 L469.956303,446.559969 C469.977622,446.212298 469.991217,445.86254 469.996919,445.510862 L470,445.130515 L470,409.130515 C470,396.427966 459.702549,386.130515 447,386.130515 C434.297451,386.130515 424,396.427966 424,409.130515 L424,445.130515 C424,451.385008 426.496504,457.056412 430.547382,461.202597 L431.496886,482.135331 C418.380135,477.420252 409,464.870808 409,450.130515 L409,401.130515 C409,382.352834 424.222319,367.130515 443,367.130515 L451,367.130515 Z" id="Combined-Shape-Copy" transform="translate(447.000000, 424.659727) rotate(-180.000000) translate(-447.000000, -424.659727) "></path>
            <path d="M450.420069,284.552042 C448.142149,284.552042 445.884785,286.590524 443.647976,290.667488 L388.000017,379.084632 L476.621639,375.172393 L446.205357,434.457887 C444.203946,438.52068 444.60885,440.552077 447.420069,440.552077 C450.231288,440.552077 452.703581,438.540845 454.836948,434.518381 L510.000017,349.611201 L420.378396,354.523439 L452.236962,290.637782 C453.970286,286.580622 453.364655,284.552042 450.420069,284.552042 Z" id="Path-3" transform="translate(449.000017, 362.552059) rotate(-270.000000) translate(-449.000017, -362.552059) "></path>
        </g>
    </g>
</svg>