<?xml version="1.0" encoding="iso-8859-1"?>
<!-- Generator: Adobe Illustrator 28.2.0, SVG Export Plug-In . SVG Version: 6.00 Build 0)  -->
<svg version="1.1" id="Layer_1" xmlns="http://www.w3.org/2000/svg" xmlns:xlink="http://www.w3.org/1999/xlink" x="0px" y="0px"
	 viewBox="0 0 1674.612 688.413" style="enable-background:new 0 0 1674.612 688.413;" xml:space="preserve">
<polygon style="fill:#9F8958;" points="56.255,676.973 56.255,561.601 235.511,561.601 235.511,115.372 226.928,115.372 
	91.535,292.718 0,221.207 159.231,11.444 378.533,11.444 378.533,561.601 519.648,561.601 519.648,676.973 "/>
<path style="fill:#9F8958;" d="M1013.871,136.349H711.616l-14.303,210.719h7.627c26.699-62.93,58.164-105.835,143.023-105.835
	c113.466,0,204.998,78.185,204.998,211.674c0,135.393-91.532,235.506-255.533,235.506c-128.72,0-197.37-60.067-237.416-127.763
	l103.928-82c28.606,51.486,65.791,93.44,134.441,93.44c68.653,0,103.933-42.905,103.933-107.743v-7.629
	c0-61.023-38.141-99.162-100.118-99.162c-51.488,0-85.814,26.699-102.976,46.72L581.943,388.07l24.789-376.625h407.139V136.349z"/>
<path style="fill:#9F8958;" d="M1394.835,420.427c8.133-7.361,28.132-45.974-13.532-83.562
	c-19.003-17.137-25.523-25.567-26.306-51.902c-6.986,13.201-12.56,38.292,6.501,56.566
	C1392.901,371.63,1401.418,385.959,1394.835,420.427"/>
<polygon style="fill:#9F8958;" points="1350.027,472.475 1413.76,472.475 1423.76,459.172 1340.023,459.172 "/>
<path style="fill:#9F8958;" d="M1367.125,448.089c21.68-14.746,31.019-53.943-11.535-92.857
	c-23.415-21.408-27.482-47.485-16.301-86.279c-19.718,24.368-84.082,131.504,3.221,179.136H1367.125z"/>
<path style="fill:#9F8958;" d="M1379.758,218.518c-33.832,77.965,9.11,101.239,27.613,127.36
	c25.732,36.324,9.173,85.739-29.192,102.21h43.589c0,0,45.799-21.131,45.799-70.428
	C1467.567,304.238,1375.055,298.038,1379.758,218.518"/>
<path style="fill:#9F8958;" d="M1506.56,490.667h-101.288v-7.128h-46.757v7.128h-101.287V371.829
	c0-143.593,124.664-228.919,124.664-228.919s124.668,84.767,124.668,228.356V490.667z M1381.894,0
	c-176.395,0-292.719,118.231-292.719,344.208c0,225.974,116.324,344.205,292.719,344.205s292.718-118.231,292.718-344.205
	C1674.612,118.231,1558.289,0,1381.894,0"/>
</svg>
