<?xml version="1.0" encoding="utf-8"?>
<!-- Generator: Adobe Illustrator 22.1.0, SVG Export Plug-In . SVG Version: 6.00 Build 0)  -->
<svg version="1.1" id="horizontal_sig_with_tag" xmlns="http://www.w3.org/2000/svg" xmlns:xlink="http://www.w3.org/1999/xlink"
	 x="0px" y="0px" viewBox="0 0 1092.1 146.4" style="enable-background:new 0 0 1092.1 146.4;" xml:space="preserve">
<style type="text/css">
	.st0{fill:#FFFFFF;}
</style>
<g>
	<path class="st0" d="M52.6,76.7H24.8c4.7-12,8.6-21.6,15.6-37.5L52.6,76.7z M120.9,113.4H147v-3.2h-5.3c-4.9,0-5.6,0-5.6-20.1v-19
		c0-8-3.5-16.5-16.1-16.5c-8.7,0-15.7,4.9-22.6,10.6V54.6c-2,0-5.1,0.5-9.2,1.1c-3.2,0.4-7.5,1.1-9.3,1.1V60H86
		c2.3,0,3.7,0,3.7,11.8v36.7c0,1.3-1.3,1.3-2.5,1.3H77.1c-2.9,0-4.7-4-6.5-8.4c-4.9-11.7-23.7-65.2-23.7-70.5c0-2.8,2.3-2.5,2.3-4.1
		c0-0.5-0.3-0.9-0.8-0.9c-0.9,0-4,0.5-6.9,1.5L7.7,107.2c-1.1,2.7-1.5,2.7-7.7,2.7v3.6h27v-3.6h-3.3h-5.3c-3.2,0-3.3-2.3-3.3-3.3
		c0-3.6,3.3-13.8,8-25.4h31.3c4.1,11.3,9.4,26.4,9.4,27.4c0,1.1-0.3,1.3-2.5,1.3h-6.7v3.6h53.7v-3.2H103c-4.9,0-5.6,0-5.6-20.1V69.4
		c5.9-4.9,12-8.8,20-8.8c6.1,0,11.1,3.1,11.1,13.6v34.7c0,1.3-1.3,1.3-2.5,1.3h-4.9v3.2H120.9z M194.7,101.5
		c-5.1,4.5-9.7,7.7-16.6,7.7c-14.1,0-19.7-12.2-19.7-24.8c0-14.1,6.9-26.2,21.8-26.2c5.2,0,10.4,2,14.5,5.2V101.5z M204,114.5
		c4-0.5,8-1.1,9.3-1.1v-3.2H208c-4.9,0-5.6,0-5.6-20.1V19.6c-6.1,1.6-12.2,2.7-18.5,3.1v3.2h7.1c2.3,0,3.7,0,3.7,11.8v21.6
		c-5.1-3.3-10.5-4.7-15.8-4.7c-18.2,0-28.6,14.9-28.6,31.9c0,13.8,6.9,29,22.6,29c7.7,0,13.3-3.7,21.8-10v10
		C196.2,115.6,200,115,204,114.5 M259.4,57.5c-1.5-1.9-4-2.9-6.3-2.9c-4.1,0-7.7,2.4-17.7,11.4V54.6c-2,0-5.1,0.5-9.2,1.1
		c-3.2,0.4-7.5,1.1-9.3,1.1V60h7c2.3,0,3.7,0,3.7,11.8v37.1c0,1.3-1.3,1.3-2.5,1.3h-4.9v3.2h26.1v-3.2H241c-4.9,0-5.6,0-5.6-20.1
		V70.3c5.7-6,9.2-7.9,13.4-7.9c7.1,0,5.7,4,7.7,4C257.5,66.5,257.9,66.1,259.4,57.5 M268.3,80.4c0-9.8,6.7-22.2,16.2-22.2
		c15.9,0,17.7,17.1,17.7,22.1L268.3,80.4z M268.3,83.9l40.8-0.1c0-15.9-8.7-29.2-23.4-29.2c-17,0-25.2,17.2-25.2,32.2
		c0,14.9,7.9,28.7,24.4,28.7c9.6,0,17.8-3.7,24.4-10.7l-1.9-2c-4.8,4.5-10.2,6.8-17,6.8C274.6,109.7,269,97.7,268.3,83.9
		 M399.8,59.9h4v-3.2h-21v3.2h5.9c1.9,0,2.8,0.3,2.8,2.1c0,3.3-0.3,5.1-15,39.8c-6.4-16-16.1-39.5-16.1-41.1c0-0.8,0.9-0.8,2.1-0.8
		h6.9v-3.2h-23.9v3.2h3.5c2.9,0,3.2,0,7.4,11.3c-4.7,10.6-7.6,18.5-13.8,30.6c-13.6-34.3-16-39.5-16-41.1c0-0.8,0.9-0.8,2.1-0.8h6.5
		v-3.2H311v3.2h3.6c2.5,0,3.6,2.1,6.4,8.1l17.6,45.4c0.7,1.7,0.9,2.5,1.9,2.5c0.9,0,1.1-0.5,1.9-2.4L358,75.6l14.2,37.9
		c0.8,1.9,1.1,2.4,1.9,2.4c0.7,0,0.9-0.7,1.5-1.9c9.7-24.5,19.7-48.3,20.8-50.6C398.1,60.1,398.3,59.9,399.8,59.9 M443.6,66.5
		c0-0.9-0.4-5.5-0.8-9.1c-4.3-2-9.5-2.8-14.9-2.8c-11.9,0-20.9,8.3-20.9,17.3c0,20.8,33.4,11.6,33.4,27c0,8.3-8.4,12.2-15.2,12.2
		c-6.8,0-16.2-3.6-17.2-8.5c-0.3-0.9-0.5-2.3-1.6-2.3c-0.9,0-1.5,0.4-1.5,1.2c0,1.3,0.9,6.4,1.7,11.4c4.8,1.7,9.8,2.5,14.9,2.5
		c11.3,0,25.3-5.3,25.3-18.6c0-21-34.1-13.3-34.1-27.6c0-6.9,7.7-10.4,13.3-10.4c11.6,0,14.4,6.1,15,7.2c0.4,0.7,0.5,1.2,1.5,1.2
		C443.3,67.4,443.6,67,443.6,66.5"/>
	<path class="st0" d="M653.9,32.5h5.5v-3.6H635v3.6h7.4c2.9,0,4.4,0.4,4.4,19.4v29.5c0,26.7-19.2,29.4-28,29.4
		c-8.2,0-24.5-3.1-24.5-26.1v-51c0-1.3,1.5-1.3,3.1-1.3h5.3v-3.6h-28.6v3.6h7.8c3.3,0,3.7,2.7,3.7,17.8v36.5
		c0,24,18.8,29.1,30.9,29.1c16.5,0,34.6-8.2,34.6-33.7V33.9C651.3,32.8,652.4,32.5,653.9,32.5 M704,113.4h26v-3.2h-5.3
		c-4.9,0-5.6,0-5.6-20.1v-19c0-8-3.5-16.5-16.1-16.5c-8.7,0-15.7,4.9-22.6,10.6V54.6c-2,0-5.1,0.5-9.2,1.1c-3.2,0.4-7.5,1.1-9.3,1.1
		V60h7.1c2.3,0,3.7,0,3.7,11.8v37.1c0,1.3-1.3,1.3-2.5,1.3h-4.9v3.2h26.1v-3.2H686c-4.9,0-5.6,0-5.6-20.1V69.4
		c5.9-4.9,12-8.8,20-8.8c6.1,0,11,3.1,11,13.6v34.7c0,1.3-1.3,1.3-2.5,1.3H704V113.4z M750.3,35.2c0-2.7-2.3-4.9-4.9-4.9
		c-2.7,0-4.9,2.3-4.9,4.9c0,2.8,2.3,5.1,4.9,5.1C748,40.2,750.3,38,750.3,35.2 M734.8,113.4h26.1v-3.2h-5.3c-4.9,0-5.6,0-5.6-20.1
		V54.6c-2,0-5.1,0.5-9.2,1.1c-3.2,0.4-7.5,1.1-9.3,1.1V60h7.1c2.3,0,3.7,0,3.7,11.8v37.1c0,1.3-1.3,1.3-2.5,1.3h-4.9L734.8,113.4
		L734.8,113.4z M817.7,59.9h4.4v-3.2h-22.6v3.2h6.1c1.6,0,3.3,0,3.3,2.1c0,5.5-5.1,19.8-15,40.9c-11.7-28.3-17.2-40.6-17.2-42.2
		c0-0.8,0.9-0.8,2.1-0.8h6.5v-3.2h-24.2v3.2h3.6c2.5,0,3.6,2.1,6.4,8.1c4.4,9.3,16.8,40.5,18.1,45.1c1.2,2.8,1.5,2.8,2,2.8
		c0.7,0,1.1-0.5,1.5-1.3c6.8-16.6,17.7-42.7,22.5-52.7C816.1,60.1,816.5,59.9,817.7,59.9 M831.7,80.4c0-9.8,6.7-22.2,16.2-22.2
		c15.9,0,17.7,17.1,17.7,22.1L831.7,80.4z M831.7,83.9l40.8-0.1c0-15.9-8.7-29.2-23.4-29.2c-17,0-25.2,17.2-25.2,32.2
		c0,14.9,7.8,28.7,24.4,28.7c9.6,0,17.8-3.7,24.3-10.7l-1.9-2c-4.8,4.5-10.2,6.8-17,6.8C838,109.7,832.4,97.7,831.7,83.9
		 M919.7,57.5c-1.5-1.9-4-2.9-6.3-2.9c-4.1,0-7.7,2.4-17.7,11.4V54.6c-2,0-5.1,0.5-9.2,1.1c-3.2,0.4-7.5,1.1-9.3,1.1V60h7
		c2.3,0,3.7,0,3.7,11.8v37.1c0,1.3-1.3,1.3-2.5,1.3h-4.9v3.2h26.1v-3.2h-5.3c-4.9,0-5.6,0-5.6-20.1V70.3c5.7-6,9.2-7.9,13.4-7.9
		c7.1,0,5.7,4,7.7,4C917.8,66.5,918.2,66.1,919.7,57.5 M929.4,69.4c0-6.9,7.7-10.4,13.3-10.4c11.6,0,14.4,6.1,15,7.2
		c0.4,0.7,0.5,1.2,1.5,1.2c0.7,0,0.9-0.4,0.9-0.9c0-0.9-0.4-5.5-0.8-9.1c-4.3-2-9.5-2.8-14.9-2.8c-11.8,0-20.9,8.3-20.9,17.3
		c0,20.8,33.4,11.6,33.4,27c0,8.3-8.4,12.2-15.2,12.2s-16.2-3.6-17.2-8.5c-0.3-0.9-0.5-2.3-1.6-2.3c-0.9,0-1.5,0.4-1.5,1.2
		c0,1.3,0.9,6.4,1.7,11.4c4.8,1.7,9.8,2.5,14.9,2.5c11.3,0,25.3-5.3,25.3-18.6C963.5,75.9,929.4,83.6,929.4,69.4 M985.8,35.2
		c0-2.7-2.3-4.9-4.9-4.9c-2.7,0-4.9,2.3-4.9,4.9c0,2.8,2.3,5.1,4.9,5.1C983.6,40.2,985.8,38,985.8,35.2 M970.4,113.4h26.1v-3.2h-5.3
		c-4.9,0-5.6,0-5.6-20.1V54.6c-2,0-5.1,0.5-9.2,1.1c-3.2,0.4-7.4,1.1-9.3,1.1V60h7.1c2.3,0,3.7,0,3.7,11.8v37.1
		c0,1.3-1.3,1.3-2.5,1.3h-4.9L970.4,113.4L970.4,113.4z M1092.1,59.9v-3.2h-22.2v3.2h6c1.9,0,3.2,0,3.2,2.1c0,2.4-1.1,10.8-15.2,41
		c-5.2-12.2-17.6-40.7-17.6-42.3c0-0.8,0.9-0.8,2.1-0.8h6.5v-3.2h-40.5V44.1h-1.9l-10.8,12.8c-0.8,0.8-1.3,1.5-1.3,2.1
		c0,0.9,0.5,0.9,3.3,0.9h2.9v43.4c0,7.2,4,12.2,11.6,12.2c4.7,0,11.6-2.3,15.7-4.7l-1.2-2.7c-2.8,1.2-6,2.1-9.1,2.1
		c-8.7,0-9.3-6.4-9.3-12.4V59.9h19.9c2.5,0,3.7,2,6.4,8.1l18.9,44.1c-12.6,27.7-20.4,29-24.6,31.1c-1.6,0.7-2.1,1.1-2.1,1.6
		c0,0.9,0.7,1.6,1.6,1.6c4.5,0,9.2-0.5,13.7-1.7c5.9-7.7,33.5-74.8,35.8-80.4c1.9-4.4,1.3-4.4,3.6-4.4
		C1087.5,59.9,1092.1,59.9,1092.1,59.9z"/>
	<path class="st0" d="M524.4,99.6h-14.2c12.5-5.4,17.9-21.5,9.5-33.3c-6-8.5-20-16.1-9-41.5c-1.5,25.9,28.6,28,28.6,51.9
		C539.4,92.7,524.4,99.6,524.4,99.6 M521.8,107.5H501l-3.3-4.3H525L521.8,107.5z M497.5,41.1c-3.6,12.7-2.3,21.2,5.3,28.1
		c13.9,12.7,10.8,25.5,3.8,30.3h-8C470.1,84,491.1,49.1,497.5,41.1 M502.7,46.3c0.3,8.6,2.4,11.3,8.6,16.9
		c13.6,12.3,7.1,24.9,4.4,27.3c2.1-11.2-0.6-15.9-10.9-25.7C498.6,58.8,500.4,50.6,502.7,46.3 M511.4,0c0,0-40.7,27.8-40.7,74.7
		v38.8h33v-2.3H519v2.3h33v-39C552.1,27.6,511.4,0,511.4,0"/>
</g>
</svg>
